<svg width="23" height="42" viewBox="0 0 23 42" fill="none" xmlns="http://www.w3.org/2000/svg">
<path d="M5.38486 25.0039L10.0712 14.2102H11.6434V17.2639L8.31761 25.0039H10.7968V23.6131C10.7968 23.2745 11.3612 23.2503 11.6434 23.2806V27.5436C10.8694 27.5436 10.7565 27.2816 10.7968 27.1506V25.9412H7.8641L0.607804 42.1469H0.335693L2.18 36.5535C2.18 36.5535 0.547335 35.9186 1.09156 34.5581C1.63578 33.1975 4.90111 25.9412 4.90111 25.9412H1.09156V25.0039H5.38486Z" fill="#FF9900"/>
<path d="M17.5996 25.0039L12.9133 14.2102H11.3411V17.2639L14.6669 25.0039H12.1876V23.6131C12.1876 23.2745 11.6233 23.2503 11.3411 23.2806V27.5436C12.1151 27.5436 12.228 27.2816 12.1876 27.1506V25.9412H15.1204L22.3767 42.1469H22.6488L20.8045 36.5535C20.8045 36.5535 22.4371 35.9186 21.8929 34.5581C21.3487 33.1975 18.0834 25.9412 18.0834 25.9412H21.8929V25.0039H17.5996Z" fill="#FF9900"/>
<path fill-rule="evenodd" clip-rule="evenodd" d="M11.5227 12.638C13.2927 12.638 14.7275 11.2032 14.7275 9.43318C14.7275 7.66318 13.2927 6.22832 11.5227 6.22832C9.75268 6.22832 8.31781 7.66318 8.31781 9.43318C8.31781 11.2032 9.75268 12.638 11.5227 12.638ZM11.5227 14.3916C14.2612 14.3916 16.4811 12.1717 16.4811 9.43318C16.4811 6.69469 14.2612 4.47471 11.5227 4.47471C8.78419 4.47471 6.56421 6.69469 6.56421 9.43318C6.56421 12.1717 8.78419 14.3916 11.5227 14.3916Z" fill="white"/>
<path d="M10.6156 0H12.4297V4.77706H10.6156V0Z" fill="white"/>
</svg>
