<svg width="103" height="26" viewBox="0 0 103 26" fill="none" xmlns="http://www.w3.org/2000/svg">
<path d="M12.2059 12.2435C11.5616 12.6134 10.78 12.9058 9.86117 13.1205C8.94236 13.3353 7.98776 13.4427 6.99736 13.4427C5.66091 13.4427 4.52135 13.2816 3.57868 12.9594C2.64793 12.6373 1.94391 12.1898 1.46661 11.617C1.00124 11.0443 0.768555 10.382 0.768555 9.63026C0.768555 8.97397 0.947543 8.39524 1.30552 7.89407C1.6635 7.39291 2.1587 7.0051 2.79113 6.73065C2.30189 6.48006 1.92601 6.13402 1.6635 5.69252C1.41291 5.23908 1.28762 4.74388 1.28762 4.20691C1.28762 3.51482 1.50241 2.8824 1.93198 2.30963C2.37349 1.73687 3.04171 1.27746 3.93665 0.93142C4.83159 0.585376 5.93536 0.412354 7.24794 0.412354C8.07129 0.412354 8.8827 0.489915 9.68218 0.645039C10.4817 0.800162 11.1857 1.00898 11.7942 1.2715L10.8277 3.92053C9.71798 3.43129 8.57246 3.18668 7.39113 3.18668C6.54392 3.18668 5.91149 3.30004 5.49385 3.52675C5.07621 3.74154 4.86739 4.04582 4.86739 4.4396C4.86739 5.15555 5.38646 5.51353 6.42459 5.51353H9.96857V8.21625H6.19191C5.58335 8.21625 5.12394 8.31768 4.8137 8.52053C4.50345 8.71146 4.34833 8.99784 4.34833 9.37968C4.34833 9.78539 4.57504 10.1016 5.02848 10.3283C5.48192 10.555 6.18594 10.6684 7.14055 10.6684C7.8207 10.6684 8.51876 10.5789 9.23471 10.3999C9.9626 10.209 10.595 9.95244 11.132 9.63026L12.2059 12.2435Z" fill="white"/>
<path d="M21.3283 8.10886C22.4381 8.47877 22.9929 9.24245 22.9929 10.3999C22.9929 11.271 22.6528 11.9571 21.9727 12.4583C21.2925 12.9475 20.2902 13.1921 18.9657 13.1921H13.5065V3.49096H18.7151C19.9799 3.49096 20.9584 3.71171 21.6505 4.15321C22.3545 4.59472 22.7065 5.21521 22.7065 6.01469C22.7065 6.48006 22.5872 6.89174 22.3486 7.24972C22.1099 7.60769 21.7698 7.89407 21.3283 8.10886ZM16.5493 7.39291H18.4108C19.1984 7.39291 19.5921 7.10056 19.5921 6.51586C19.5921 5.95503 19.1984 5.67462 18.4108 5.67462H16.5493V7.39291ZM18.6614 10.9906C19.4847 10.9906 19.8964 10.6923 19.8964 10.0956C19.8964 9.49901 19.4967 9.20069 18.6972 9.20069H16.5493V10.9906H18.6614Z" fill="white"/>
<path d="M29.2571 9.73766H28.1116V13.1921H24.7108V3.49096H28.1116V7.07073H29.3287L31.7092 3.49096H35.3069L32.0493 8.14466L35.5217 13.1921H31.5124L29.2571 9.73766Z" fill="white"/>
<path d="M46.5294 3.49096V13.1921H43.1286V6.19368H40.6764L40.6048 7.67929C40.5571 8.94414 40.4318 9.98824 40.229 10.8116C40.0261 11.6349 39.692 12.2793 39.2266 12.7447C38.7612 13.1981 38.1229 13.4248 37.3114 13.4248C36.8938 13.4248 36.3449 13.3473 35.6647 13.1921L35.8079 10.4178C36.0227 10.4417 36.1659 10.4536 36.2375 10.4536C36.6074 10.4536 36.8878 10.3343 37.0788 10.0956C37.2697 9.85698 37.4009 9.54077 37.4725 9.14699C37.5441 8.74129 37.5919 8.20432 37.6157 7.5361L37.7589 3.49096H46.5294Z" fill="white"/>
<path d="M58.8024 3.49096V13.1921H55.5627V12.1719C55.2047 12.5537 54.7751 12.8461 54.274 13.0489C53.7847 13.2518 53.2597 13.3532 52.6989 13.3532C51.434 13.3532 50.4257 12.9833 49.674 12.2435C48.9341 11.5037 48.5642 10.3939 48.5642 8.91431V3.49096H51.965V8.35944C51.965 9.75556 52.5079 10.4536 53.5938 10.4536C54.1308 10.4536 54.5663 10.2687 54.9004 9.89875C55.2345 9.5169 55.4016 8.93817 55.4016 8.16256V3.49096H58.8024Z" fill="white"/>
<path d="M71.413 3.49096V11.4201C71.413 13.222 70.9237 14.5703 69.9453 15.4653C68.9668 16.3722 67.5587 16.8256 65.7211 16.8256C64.7665 16.8256 63.8716 16.7182 63.0363 16.5034C62.201 16.2886 61.491 15.9724 60.9063 15.5548L62.1413 13.1742C62.5351 13.4964 63.0303 13.747 63.627 13.926C64.2355 14.1169 64.8321 14.2124 65.4168 14.2124C66.3118 14.2124 66.9681 14.0155 67.3857 13.6217C67.8034 13.2279 68.0122 12.6432 68.0122 11.8676V11.5454C67.3559 12.3091 66.3953 12.691 65.1305 12.691C64.2713 12.691 63.4778 12.5 62.7499 12.1182C62.022 11.7244 61.4433 11.1755 61.0137 10.4715C60.5841 9.75555 60.3694 8.93221 60.3694 8.00147C60.3694 7.08266 60.5841 6.27125 61.0137 5.56722C61.4433 4.85127 62.022 4.30237 62.7499 3.92053C63.4778 3.52675 64.2713 3.32987 65.1305 3.32987C66.5146 3.32987 67.5289 3.77734 68.1733 4.67228V3.49096H71.413ZM65.9359 9.98824C66.5445 9.98824 67.0456 9.80328 67.4394 9.43338C67.8451 9.06347 68.048 8.58616 68.048 8.00147C68.048 7.41677 67.8511 6.94544 67.4573 6.58746C67.0635 6.21755 66.5564 6.03259 65.9359 6.03259C65.3154 6.03259 64.8023 6.21755 64.3966 6.58746C64.0028 6.94544 63.8059 7.41677 63.8059 8.00147C63.8059 8.58616 64.0088 9.06347 64.4145 9.43338C64.8202 9.80328 65.3273 9.98824 65.9359 9.98824Z" fill="white"/>
<path d="M6.28624 17.9329V23.7742H4.65067V19.243H2.43097V23.7742H0.803748V17.9329H6.28624Z" fill="white"/>
<path d="M9.86313 19.1763C10.3583 19.1763 10.7894 19.2709 11.1566 19.46C11.5237 19.6491 11.8047 19.9217 11.9994 20.2778C12.1997 20.6283 12.2998 21.0399 12.2998 21.5128C12.2998 21.9801 12.208 22.3918 12.0244 22.7478C11.8408 23.0983 11.5821 23.3709 11.2484 23.5656C10.9146 23.7548 10.5279 23.8493 10.0884 23.8493C9.57107 23.8493 9.16496 23.6908 8.87011 23.3737V25.3931H7.28461V21.5295C7.28461 21.0622 7.39031 20.6505 7.60171 20.2945C7.81311 19.9384 8.11352 19.6631 8.50294 19.4683C8.89236 19.2736 9.34576 19.1763 9.86313 19.1763ZM9.78803 22.5893C10.0718 22.5893 10.2998 22.4919 10.4723 22.2972C10.6503 22.0969 10.7393 21.8355 10.7393 21.5128C10.7393 21.1901 10.6503 20.9315 10.4723 20.7367C10.2998 20.5365 10.0718 20.4363 9.78803 20.4363C9.50431 20.4363 9.27622 20.5365 9.10376 20.7367C8.9313 20.9315 8.84507 21.1901 8.84507 21.5128C8.84507 21.841 8.92852 22.1025 9.09542 22.2972C9.26787 22.4919 9.49875 22.5893 9.78803 22.5893Z" fill="white"/>
<path d="M15.2941 23.8493C14.8101 23.8493 14.3734 23.7492 13.984 23.5489C13.5946 23.3486 13.2886 23.0705 13.0661 22.7144C12.8491 22.3584 12.7406 21.9551 12.7406 21.5045C12.7406 21.0594 12.8491 20.6589 13.0661 20.3028C13.2886 19.9468 13.5918 19.6714 13.9757 19.4767C14.3651 19.2764 14.8046 19.1763 15.2941 19.1763C15.7837 19.1763 16.2232 19.2764 16.6126 19.4767C17.002 19.6714 17.3052 19.9468 17.5222 20.3028C17.7391 20.6533 17.8476 21.0538 17.8476 21.5045C17.8476 21.9551 17.7391 22.3584 17.5222 22.7144C17.3052 23.0705 17.002 23.3486 16.6126 23.5489C16.2232 23.7492 15.7837 23.8493 15.2941 23.8493ZM15.2941 22.5893C15.5723 22.5893 15.8004 22.4947 15.9784 22.3056C16.1564 22.1108 16.2454 21.8438 16.2454 21.5045C16.2454 21.1707 16.1564 20.9092 15.9784 20.7201C15.8004 20.5309 15.5723 20.4363 15.2941 20.4363C15.016 20.4363 14.7879 20.5309 14.6099 20.7201C14.4318 20.9092 14.3428 21.1707 14.3428 21.5045C14.3428 21.8438 14.4318 22.1108 14.6099 22.3056C14.7879 22.4947 15.016 22.5893 15.2941 22.5893Z" fill="white"/>
<path d="M20.9861 22.6393C21.2031 22.6393 21.3895 22.6087 21.5452 22.5476C21.7066 22.4864 21.8679 22.3862 22.0292 22.2471L22.8554 23.115C22.427 23.6045 21.7872 23.8493 20.9361 23.8493C20.4076 23.8493 19.9431 23.7492 19.5425 23.5489C19.142 23.3486 18.8304 23.0705 18.6079 22.7144C18.3909 22.3584 18.2824 21.9551 18.2824 21.5045C18.2824 21.0594 18.3909 20.6616 18.6079 20.3112C18.8249 19.9551 19.1225 19.677 19.5008 19.4767C19.8846 19.2764 20.313 19.1763 20.7859 19.1763C21.2254 19.1763 21.6259 19.2681 21.9875 19.4517C22.3547 19.6297 22.6467 19.8939 22.8637 20.2444C23.0807 20.5893 23.1892 21.001 23.1892 21.4794L19.9597 22.0969C20.1322 22.4585 20.4743 22.6393 20.9861 22.6393ZM20.7942 20.3028C20.5216 20.3028 20.2991 20.389 20.1266 20.5615C19.9542 20.7284 19.8568 20.9704 19.8346 21.2875L21.6704 20.9287C21.6148 20.7395 21.5091 20.5893 21.3533 20.4781C21.1975 20.3612 21.0112 20.3028 20.7942 20.3028Z" fill="white"/>
<path d="M26.0648 22.1637H25.5307V23.7742H23.9452V19.2514H25.5307V20.9203H26.0981L27.208 19.2514H28.8853L27.3665 21.421L28.9854 23.7742H27.1162L26.0648 22.1637Z" fill="white"/>
<path d="M35.4025 19.1763C35.9588 19.1763 36.401 19.3432 36.7293 19.677C37.0631 20.0107 37.23 20.5142 37.23 21.1874V23.7742H35.6445V21.446C35.6445 21.1289 35.5833 20.8953 35.4609 20.7451C35.344 20.5949 35.1771 20.5198 34.9602 20.5198C34.721 20.5198 34.529 20.6032 34.3844 20.7701C34.2398 20.937 34.1674 21.1901 34.1674 21.5295V23.7742H32.5819V21.446C32.5819 20.8285 32.3538 20.5198 31.8977 20.5198C31.6529 20.5198 31.4582 20.6032 31.3135 20.7701C31.1689 20.937 31.0966 21.1901 31.0966 21.5295V23.7742H29.5111V19.2514H31.0215V19.727C31.1884 19.5434 31.3859 19.4071 31.6139 19.3181C31.8476 19.2236 32.1007 19.1763 32.3733 19.1763C32.6904 19.1763 32.9741 19.2347 33.2245 19.3515C33.4748 19.4683 33.6779 19.6464 33.8336 19.8856C34.0117 19.6575 34.237 19.4823 34.5096 19.3599C34.7822 19.2375 35.0798 19.1763 35.4025 19.1763Z" fill="white"/>
<path d="M38.1899 19.2514H39.7671V20.9287H41.3943V19.2514H42.9798V23.7742H41.3943V22.1887H39.7671V23.7742H38.1899V19.2514Z" fill="white"/>
<path d="M46.2021 23.9077C44.7056 23.9077 43.9574 23.2652 43.9574 21.9801V19.2514H45.5345V20.6867C45.6514 20.6088 45.8071 20.5448 46.0018 20.4947C46.2021 20.4447 46.4302 20.4196 46.6861 20.4196C47.2424 20.4196 47.6791 20.5615 47.9962 20.8452C48.3133 21.1234 48.4719 21.5378 48.4719 22.0886C48.4719 22.6838 48.266 23.1372 47.8544 23.4488C47.4483 23.7548 46.8975 23.9077 46.2021 23.9077ZM48.8474 19.2514H50.4329V23.7742H48.8474V19.2514ZM46.2021 22.8229C46.4191 22.8229 46.5832 22.759 46.6945 22.631C46.8057 22.503 46.8613 22.3334 46.8613 22.122C46.8613 21.9161 46.8057 21.7548 46.6945 21.638C46.5832 21.5211 46.4219 21.4627 46.2105 21.4627C46.0603 21.4627 45.9267 21.4906 45.8099 21.5462C45.6931 21.6018 45.6013 21.6769 45.5345 21.7715V22.122C45.5345 22.3389 45.5902 22.5114 45.7014 22.6393C45.8127 22.7617 45.9796 22.8229 46.2021 22.8229Z" fill="white"/>
<path d="M53.8924 22.6393C54.1094 22.6393 54.2958 22.6087 54.4515 22.5476C54.6129 22.4864 54.7742 22.3862 54.9355 22.2471L55.7617 23.115C55.3333 23.6045 54.6935 23.8493 53.8424 23.8493C53.3139 23.8493 52.8493 23.7492 52.4488 23.5489C52.0483 23.3486 51.7367 23.0705 51.5142 22.7144C51.2972 22.3584 51.1887 21.9551 51.1887 21.5045C51.1887 21.0594 51.2972 20.6616 51.5142 20.3112C51.7312 19.9551 52.0288 19.677 52.4071 19.4767C52.7909 19.2764 53.2193 19.1763 53.6922 19.1763C54.1317 19.1763 54.5322 19.2681 54.8938 19.4517C55.261 19.6297 55.553 19.8939 55.77 20.2444C55.987 20.5893 56.0954 21.001 56.0954 21.4794L52.866 22.0969C53.0385 22.4585 53.3806 22.6393 53.8924 22.6393ZM53.7005 20.3028C53.4279 20.3028 53.2054 20.389 53.0329 20.5615C52.8605 20.7284 52.7631 20.9704 52.7409 21.2875L54.5767 20.9287C54.5211 20.7395 54.4154 20.5893 54.2596 20.4781C54.1038 20.3612 53.9175 20.3028 53.7005 20.3028Z" fill="white"/>
<path d="M61.5497 23.8493C61.049 23.8493 60.6012 23.7492 60.2062 23.5489C59.8112 23.3486 59.5025 23.0705 59.2799 22.7144C59.063 22.3584 58.9545 21.9551 58.9545 21.5045C58.9545 21.0538 59.063 20.6533 59.2799 20.3028C59.5025 19.9468 59.8112 19.6714 60.2062 19.4767C60.6012 19.2764 61.049 19.1763 61.5497 19.1763C62.0615 19.1763 62.5038 19.2875 62.8765 19.5101C63.2493 19.727 63.5135 20.0302 63.6693 20.4196L62.4426 21.0455C62.2368 20.6394 61.9363 20.4363 61.5414 20.4363C61.2576 20.4363 61.0212 20.5309 60.8321 20.7201C60.6485 20.9092 60.5567 21.1707 60.5567 21.5045C60.5567 21.8438 60.6485 22.1108 60.8321 22.3056C61.0212 22.4947 61.2576 22.5893 61.5414 22.5893C61.9363 22.5893 62.2368 22.3862 62.4426 21.9801L63.6693 22.606C63.5135 22.9954 63.2493 23.3014 62.8765 23.5239C62.5038 23.7408 62.0615 23.8493 61.5497 23.8493Z" fill="white"/>
<path d="M68.9888 19.2514V23.7742H67.4784V23.2986C67.3115 23.4766 67.1112 23.6129 66.8776 23.7075C66.6495 23.802 66.4047 23.8493 66.1432 23.8493C65.5535 23.8493 65.0834 23.6769 64.733 23.332C64.3881 22.987 64.2156 22.4697 64.2156 21.7798V19.2514H65.8011V21.5211C65.8011 22.172 66.0542 22.4975 66.5605 22.4975C66.8108 22.4975 67.0139 22.4113 67.1696 22.2388C67.3254 22.0608 67.4033 21.791 67.4033 21.4294V19.2514H68.9888Z" fill="white"/>
<path d="M72.3229 23.8493C71.8222 23.8493 71.3744 23.7492 70.9794 23.5489C70.5844 23.3486 70.2757 23.0705 70.0531 22.7144C69.8362 22.3584 69.7277 21.9551 69.7277 21.5045C69.7277 21.0538 69.8362 20.6533 70.0531 20.3028C70.2757 19.9468 70.5844 19.6714 70.9794 19.4767C71.3744 19.2764 71.8222 19.1763 72.3229 19.1763C72.8347 19.1763 73.277 19.2875 73.6497 19.5101C74.0224 19.727 74.2867 20.0302 74.4425 20.4196L73.2158 21.0455C73.0099 20.6394 72.7095 20.4363 72.3146 20.4363C72.0308 20.4363 71.7944 20.5309 71.6052 20.7201C71.4217 20.9092 71.3299 21.1707 71.3299 21.5045C71.3299 21.8438 71.4217 22.1108 71.6052 22.3056C71.7944 22.4947 72.0308 22.5893 72.3146 22.5893C72.7095 22.5893 73.0099 22.3862 73.2158 21.9801L74.4425 22.606C74.2867 22.9954 74.0224 23.3014 73.6497 23.5239C73.277 23.7408 72.8347 23.8493 72.3229 23.8493Z" fill="white"/>
<path d="M80.997 19.1763C81.5533 19.1763 81.9956 19.3432 82.3238 19.677C82.6576 20.0107 82.8245 20.5142 82.8245 21.1874V23.7742H81.239V21.446C81.239 21.1289 81.1778 20.8953 81.0554 20.7451C80.9386 20.5949 80.7717 20.5198 80.5547 20.5198C80.3155 20.5198 80.1236 20.6032 79.9789 20.7701C79.8343 20.937 79.762 21.1901 79.762 21.5295V23.7742H78.1765V21.446C78.1765 20.8285 77.9484 20.5198 77.4922 20.5198C77.2474 20.5198 77.0527 20.6032 76.9081 20.7701C76.7634 20.937 76.6911 21.1901 76.6911 21.5295V23.7742H75.1056V19.2514H76.616V19.727C76.7829 19.5434 76.9804 19.4071 77.2085 19.3181C77.4421 19.2236 77.6953 19.1763 77.9678 19.1763C78.2849 19.1763 78.5687 19.2347 78.819 19.3515C79.0694 19.4683 79.2724 19.6464 79.4282 19.8856C79.6062 19.6575 79.8315 19.4823 80.1041 19.3599C80.3767 19.2375 80.6743 19.1763 80.997 19.1763Z" fill="white"/>
<path d="M86.1794 22.6393C86.3964 22.6393 86.5827 22.6087 86.7385 22.5476C86.8998 22.4864 87.0612 22.3862 87.2225 22.2471L88.0486 23.115C87.6203 23.6045 86.9805 23.8493 86.1293 23.8493C85.6008 23.8493 85.1363 23.7492 84.7358 23.5489C84.3352 23.3486 84.0237 23.0705 83.8011 22.7144C83.5842 22.3584 83.4757 21.9551 83.4757 21.5045C83.4757 21.0594 83.5842 20.6616 83.8011 20.3112C84.0181 19.9551 84.3157 19.677 84.694 19.4767C85.0779 19.2764 85.5063 19.1763 85.9791 19.1763C86.4186 19.1763 86.8192 19.2681 87.1808 19.4517C87.5479 19.6297 87.84 19.8939 88.057 20.2444C88.2739 20.5893 88.3824 21.001 88.3824 21.4794L85.153 22.0969C85.3255 22.4585 85.6676 22.6393 86.1794 22.6393ZM85.9875 20.3028C85.7149 20.3028 85.4923 20.389 85.3199 20.5615C85.1474 20.7284 85.0501 20.9704 85.0278 21.2875L86.8637 20.9287C86.808 20.7395 86.7023 20.5893 86.5466 20.4781C86.3908 20.3612 86.2044 20.3028 85.9875 20.3028Z" fill="white"/>
<path d="M93.5278 23.7742V21.396L92.3679 23.3737H91.6919L90.5654 21.3626V23.7742H89.1385V19.2514H90.8074L92.0675 21.6129L93.4527 19.2514H94.9464L94.9547 23.7742H93.5278Z" fill="white"/>
<path d="M98.1774 23.9077C96.6809 23.9077 95.9327 23.2652 95.9327 21.9801V19.2514H97.5099V20.6867C97.6267 20.6088 97.7824 20.5448 97.9772 20.4947C98.1774 20.4447 98.4055 20.4196 98.6614 20.4196C99.2177 20.4196 99.6544 20.5615 99.9715 20.8452C100.289 21.1234 100.447 21.5378 100.447 22.0886C100.447 22.6838 100.241 23.1372 99.8297 23.4488C99.4236 23.7548 98.8728 23.9077 98.1774 23.9077ZM100.823 19.2514H102.408V23.7742H100.823V19.2514ZM98.1774 22.8229C98.3944 22.8229 98.5585 22.759 98.6698 22.631C98.781 22.503 98.8367 22.3334 98.8367 22.122C98.8367 21.9161 98.781 21.7548 98.6698 21.638C98.5585 21.5211 98.3972 21.4627 98.1858 21.4627C98.0356 21.4627 97.9021 21.4906 97.7852 21.5462C97.6684 21.6018 97.5766 21.6769 97.5099 21.7715V22.122C97.5099 22.3389 97.5655 22.5114 97.6768 22.6393C97.788 22.7617 97.9549 22.8229 98.1774 22.8229Z" fill="white"/>
</svg>
