<svg width="26" height="48" viewBox="0 0 26 48" fill="none" xmlns="http://www.w3.org/2000/svg">
<rect width="26" height="48" fill="#E5E5E5"/>
<g clip-path="url(#clip0_406480_4006)">
<rect width="1024" height="5003" transform="translate(-50 -26)" fill="white"/>
<g filter="url(#filter0_d_406480_4006)">
<path d="M-50 -26H974V42C974 59.6731 959.673 74 942 74H-18C-35.6731 74 -50 59.6731 -50 42V-26Z" fill="white"/>
</g>
<g clip-path="url(#clip1_406480_4006)">
<path d="M5.60048 28.6674L10.9735 16.2922H12.776V19.7933L8.96292 28.6674H11.8054V27.0729C11.8054 26.6846 12.4525 26.6569 12.776 26.6916V31.5792C11.8886 31.5792 11.7592 31.2788 11.8054 31.1286V29.742H8.44296L0.123503 48.3221H-0.188477L1.92605 41.9092C1.92605 41.9092 0.0541741 41.1813 0.678133 39.6214C1.30209 38.0615 5.04585 29.742 5.04585 29.742H0.678133V28.6674H5.60048Z" fill="#FF9900"/>
<path d="M19.6049 28.6674L14.2319 16.2922H12.4294V19.7933L16.2424 28.6674H13.4V27.0729C13.4 26.6846 12.7529 26.6569 12.4294 26.6916V31.5792C13.3168 31.5792 13.4462 31.2788 13.4 31.1286V29.742H16.7624L25.0819 48.3221H25.3938L23.2793 41.9092C23.2793 41.9092 25.1512 41.1813 24.5272 39.6214C23.9033 38.0615 20.1595 29.742 20.1595 29.742H24.5272V28.6674H19.6049Z" fill="#FF9900"/>
<path fill-rule="evenodd" clip-rule="evenodd" d="M12.6371 14.4897C14.6664 14.4897 16.3115 12.8446 16.3115 10.8153C16.3115 8.78596 14.6664 7.14086 12.6371 7.14086C10.6078 7.14086 8.96268 8.78596 8.96268 10.8153C8.96268 12.8446 10.6078 14.4897 12.6371 14.4897ZM12.6371 16.5002C15.7768 16.5002 18.3221 13.955 18.3221 10.8153C18.3221 7.67557 15.7768 5.13033 12.6371 5.13033C9.49739 5.13033 6.95215 7.67557 6.95215 10.8153C6.95215 13.955 9.49739 16.5002 12.6371 16.5002Z" fill="black"/>
<path d="M11.5972 0H13.677V5.47697H11.5972V0Z" fill="black"/>
</g>
</g>
<defs>
<filter id="filter0_d_406480_4006" x="-90" y="-61" width="1104" height="180" filterUnits="userSpaceOnUse" color-interpolation-filters="sRGB">
<feFlood flood-opacity="0" result="BackgroundImageFix"/>
<feColorMatrix in="SourceAlpha" type="matrix" values="0 0 0 0 0 0 0 0 0 0 0 0 0 0 0 0 0 0 127 0" result="hardAlpha"/>
<feOffset dy="5"/>
<feGaussianBlur stdDeviation="20"/>
<feColorMatrix type="matrix" values="0 0 0 0 0 0 0 0 0 0 0 0 0 0 0 0 0 0 0.1 0"/>
<feBlend mode="normal" in2="BackgroundImageFix" result="effect1_dropShadow_406480_4006"/>
<feBlend mode="normal" in="SourceGraphic" in2="effect1_dropShadow_406480_4006" result="shape"/>
</filter>
<clipPath id="clip0_406480_4006">
<rect width="1024" height="5003" fill="white" transform="translate(-50 -26)"/>
</clipPath>
<clipPath id="clip1_406480_4006">
<rect width="150" height="48" fill="white"/>
</clipPath>
</defs>
</svg>
