<svg width="117" height="30" viewBox="0 0 117 30" fill="none" xmlns="http://www.w3.org/2000/svg">
<path d="M13.6702 14.3561C12.9315 14.7802 12.0354 15.1154 10.982 15.3616C9.92853 15.6079 8.83406 15.731 7.69855 15.731C6.16629 15.731 4.85976 15.5463 3.77898 15.1769C2.71187 14.8076 1.9047 14.2945 1.35746 13.6378C0.823906 12.9812 0.557129 12.2219 0.557129 11.36C0.557129 10.6075 0.762342 9.94401 1.17277 9.36941C1.58319 8.79482 2.15095 8.35019 2.87604 8.03553C2.31512 7.74823 1.88417 7.35148 1.58319 6.84529C1.2959 6.32542 1.15225 5.75766 1.15225 5.14202C1.15225 4.34853 1.3985 3.62345 1.89101 2.96676C2.39721 2.31008 3.16334 1.78337 4.1894 1.38662C5.21547 0.989877 6.48095 0.791504 7.98584 0.791504C8.92982 0.791504 9.86012 0.88043 10.7767 1.05828C11.6934 1.23613 12.5005 1.47555 13.1983 1.77653L12.0901 4.81368C10.8178 4.25277 9.50442 3.97231 8.15002 3.97231C7.17867 3.97231 6.45359 4.10228 5.97476 4.36221C5.49593 4.60847 5.25651 4.95733 5.25651 5.4088C5.25651 6.22965 5.85163 6.64008 7.04186 6.64008H11.1051V9.7388H6.77509C6.07736 9.7388 5.55065 9.85508 5.19495 10.0877C4.83924 10.3066 4.66139 10.6349 4.66139 11.0727C4.66139 11.5378 4.92133 11.9004 5.4412 12.1603C5.96108 12.4202 6.76825 12.5502 7.86272 12.5502C8.64253 12.5502 9.44286 12.4476 10.2637 12.2424C11.0982 12.0235 11.8233 11.7294 12.439 11.36L13.6702 14.3561Z" fill="black"/>
<path d="M24.1292 9.61567C25.4015 10.0398 26.0377 10.9154 26.0377 12.2424C26.0377 13.2411 25.6478 14.0278 24.868 14.6023C24.0882 15.1633 22.939 15.4437 21.4204 15.4437H15.1614V4.32117H21.1331C22.5833 4.32117 23.7051 4.57427 24.4986 5.08046C25.3058 5.58665 25.7094 6.29806 25.7094 7.21468C25.7094 7.74823 25.5726 8.22022 25.2989 8.63065C25.0253 9.04107 24.6354 9.36941 24.1292 9.61567ZM18.65 8.79482H20.7843C21.6872 8.79482 22.1387 8.45964 22.1387 7.78927C22.1387 7.14627 21.6872 6.82477 20.7843 6.82477H18.65V8.79482ZM21.0716 12.9196C22.0155 12.9196 22.4875 12.5776 22.4875 11.8935C22.4875 11.2095 22.0292 10.8675 21.1126 10.8675H18.65V12.9196H21.0716Z" fill="black"/>
<path d="M33.2197 11.4831H31.9063V15.4437H28.0073V4.32117H31.9063V8.42543H33.3018L36.0311 4.32117H40.1559L36.421 9.65671L40.4021 15.4437H35.8054L33.2197 11.4831Z" fill="black"/>
<path d="M53.0226 4.32117V15.4437H49.1235V7.41989H46.3121L46.23 9.12316C46.1753 10.5733 46.0317 11.7704 45.7991 12.7144C45.5665 13.6584 45.1834 14.3971 44.6499 14.9307C44.1163 15.4506 43.3844 15.7105 42.4541 15.7105C41.9753 15.7105 41.346 15.6216 40.5662 15.4437L40.7303 12.2629C40.9766 12.2903 41.1408 12.304 41.2228 12.304C41.6469 12.304 41.9684 12.1672 42.1873 11.8935C42.4062 11.6199 42.5567 11.2574 42.6388 10.8059C42.7209 10.3408 42.7756 9.72512 42.803 8.95899L42.9672 4.32117H53.0226Z" fill="black"/>
<path d="M67.0938 4.32117V15.4437H63.3794V14.274C62.969 14.7118 62.4765 15.047 61.9019 15.2796C61.341 15.5121 60.739 15.6284 60.096 15.6284C58.6459 15.6284 57.4898 15.2043 56.6279 14.3561C55.7797 13.5079 55.3556 12.2356 55.3556 10.5391V4.32117H59.2547V9.90297C59.2547 11.5036 59.8771 12.304 61.1221 12.304C61.7377 12.304 62.2371 12.0919 62.6202 11.6678C63.0032 11.23 63.1948 10.5665 63.1948 9.67723V4.32117H67.0938Z" fill="black"/>
<path d="M81.552 4.32117V13.4121C81.552 15.4779 80.9911 17.0239 79.8693 18.0499C78.7475 19.0897 77.1331 19.6095 75.0262 19.6095C73.9318 19.6095 72.9057 19.4864 71.9481 19.2402C70.9904 18.9939 70.1764 18.6314 69.506 18.1525L70.922 15.4232C71.3735 15.7926 71.9412 16.0799 72.6253 16.2851C73.323 16.504 74.007 16.6134 74.6774 16.6134C75.7035 16.6134 76.4559 16.3877 76.9347 15.9362C77.4136 15.4848 77.653 14.8144 77.653 13.9251V13.5558C76.9005 14.4313 75.7992 14.8691 74.3491 14.8691C73.364 14.8691 72.4542 14.6502 71.6197 14.2124C70.7852 13.761 70.1217 13.1317 69.6291 12.3245C69.1366 11.5036 68.8904 10.5596 68.8904 9.49254C68.8904 8.43911 69.1366 7.50881 69.6291 6.70164C70.1217 5.88079 70.7852 5.25147 71.6197 4.81368C72.4542 4.36221 73.364 4.13648 74.3491 4.13648C75.936 4.13648 77.0989 4.64951 77.8377 5.67558V4.32117H81.552ZM75.2725 11.7704C75.9702 11.7704 76.5448 11.5584 76.9963 11.1342C77.4614 10.7101 77.694 10.1629 77.694 9.49254C77.694 8.82218 77.4683 8.28178 77.0168 7.87136C76.5654 7.44725 75.9839 7.2352 75.2725 7.2352C74.5611 7.2352 73.9728 7.44725 73.5077 7.87136C73.0562 8.28178 72.8305 8.82218 72.8305 9.49254C72.8305 10.1629 73.063 10.7101 73.5282 11.1342C73.9933 11.5584 74.5748 11.7704 75.2725 11.7704Z" fill="black"/>
<path d="M6.88324 20.8791V27.5763H5.00804V22.3812H2.46312V27.5763H0.597478V20.8791H6.88324Z" fill="black"/>
<path d="M10.9842 22.3046C11.5519 22.3046 12.0462 22.4131 12.4671 22.6299C12.8881 22.8468 13.2102 23.1593 13.4334 23.5675C13.6631 23.9694 13.7779 24.4413 13.7779 24.9835C13.7779 25.5193 13.6726 25.9913 13.4622 26.3995C13.2517 26.8013 12.9551 27.1138 12.5724 27.3371C12.1897 27.5539 11.7464 27.6624 11.2425 27.6624C10.6493 27.6624 10.1837 27.4806 9.84569 27.117V29.4323H8.02789V25.0026C8.02789 24.4669 8.14907 23.9949 8.39145 23.5867C8.63382 23.1785 8.97824 22.8627 9.42472 22.6395C9.8712 22.4163 10.391 22.3046 10.9842 22.3046ZM10.8981 26.2177C11.2234 26.2177 11.4849 26.1061 11.6826 25.8828C11.8867 25.6532 11.9888 25.3534 11.9888 24.9835C11.9888 24.6136 11.8867 24.317 11.6826 24.0937C11.4849 23.8641 11.2234 23.7493 10.8981 23.7493C10.5728 23.7493 10.3113 23.8641 10.1136 24.0937C9.91585 24.317 9.81698 24.6136 9.81698 24.9835C9.81698 25.3598 9.91266 25.6596 10.104 25.8828C10.3017 26.1061 10.5664 26.2177 10.8981 26.2177Z" fill="black"/>
<path d="M17.2109 27.6624C16.656 27.6624 16.1553 27.5476 15.7088 27.3179C15.2624 27.0883 14.9116 26.7694 14.6564 26.3612C14.4077 25.953 14.2833 25.4906 14.2833 24.9739C14.2833 24.4637 14.4077 24.0044 14.6564 23.5962C14.9116 23.188 15.2592 22.8723 15.6993 22.6491C16.1457 22.4194 16.6496 22.3046 17.2109 22.3046C17.7722 22.3046 18.2761 22.4194 18.7226 22.6491C19.169 22.8723 19.5167 23.188 19.7654 23.5962C20.0142 23.9981 20.1385 24.4573 20.1385 24.9739C20.1385 25.4906 20.0142 25.953 19.7654 26.3612C19.5167 26.7694 19.169 27.0883 18.7226 27.3179C18.2761 27.5476 17.7722 27.6624 17.2109 27.6624ZM17.2109 26.2177C17.5298 26.2177 17.7913 26.1093 17.9954 25.8924C18.1995 25.6692 18.3016 25.363 18.3016 24.9739C18.3016 24.5912 18.1995 24.2915 17.9954 24.0746C17.7913 23.8577 17.5298 23.7493 17.2109 23.7493C16.892 23.7493 16.6305 23.8577 16.4264 24.0746C16.2223 24.2915 16.1202 24.5912 16.1202 24.9739C16.1202 25.363 16.2223 25.6692 16.4264 25.8924C16.6305 26.1093 16.892 26.2177 17.2109 26.2177Z" fill="black"/>
<path d="M23.7369 26.2751C23.9857 26.2751 24.1993 26.24 24.3779 26.1699C24.5629 26.0997 24.7479 25.9849 24.9328 25.8254L25.88 26.8204C25.3889 27.3817 24.6554 27.6624 23.6795 27.6624C23.0736 27.6624 22.541 27.5476 22.0818 27.3179C21.6225 27.0883 21.2653 26.7694 21.0102 26.3612C20.7615 25.953 20.6371 25.4906 20.6371 24.9739C20.6371 24.4637 20.7615 24.0076 21.0102 23.6058C21.259 23.1976 21.6002 22.8787 22.0339 22.6491C22.474 22.4194 22.9651 22.3046 23.5073 22.3046C24.0112 22.3046 24.4704 22.4099 24.885 22.6204C25.306 22.8245 25.6408 23.1274 25.8896 23.5293C26.1383 23.9247 26.2627 24.3967 26.2627 24.9452L22.5601 25.6532C22.7578 26.0678 23.1501 26.2751 23.7369 26.2751ZM23.5169 23.5962C23.2043 23.5962 22.9492 23.6951 22.7515 23.8928C22.5537 24.0842 22.4421 24.3616 22.4166 24.7252L24.5214 24.3138C24.4576 24.0969 24.3365 23.9247 24.1579 23.7971C23.9793 23.6632 23.7656 23.5962 23.5169 23.5962Z" fill="black"/>
<path d="M29.5596 25.7298H28.9473V27.5763H27.1295V22.3907H28.9473V24.3042H29.5979L30.8704 22.3907H32.7934L31.0521 24.8783L32.9082 27.5763H30.7651L29.5596 25.7298Z" fill="black"/>
<path d="M40.2654 22.3046C40.9033 22.3046 41.4103 22.496 41.7866 22.8787C42.1693 23.2614 42.3607 23.8386 42.3607 24.6104V27.5763H40.5429V24.907C40.5429 24.5434 40.4727 24.2755 40.3324 24.1033C40.1985 23.9311 40.0071 23.845 39.7584 23.845C39.4841 23.845 39.264 23.9407 39.0982 24.132C38.9324 24.3233 38.8495 24.6136 38.8495 25.0026V27.5763H37.0317V24.907C37.0317 24.199 36.7702 23.845 36.2471 23.845C35.9665 23.845 35.7433 23.9407 35.5774 24.132C35.4116 24.3233 35.3287 24.6136 35.3287 25.0026V27.5763H33.5109V22.3907H35.2426V22.9361C35.4339 22.7256 35.6603 22.5693 35.9218 22.4673C36.1897 22.3589 36.4799 22.3046 36.7925 22.3046C37.156 22.3046 37.4813 22.3716 37.7684 22.5056C38.0554 22.6395 38.2882 22.8436 38.4668 23.1179C38.6709 22.8564 38.9292 22.6554 39.2417 22.5151C39.5543 22.3748 39.8955 22.3046 40.2654 22.3046Z" fill="black"/>
<path d="M43.4613 22.3907H45.2695V24.3138H47.1352V22.3907H48.953V27.5763H47.1352V25.7585H45.2695V27.5763H43.4613V22.3907Z" fill="black"/>
<path d="M52.6474 27.7293C50.9317 27.7293 50.0738 26.9926 50.0738 25.5193V22.3907H51.882V24.0363C52.016 23.947 52.1945 23.8737 52.4178 23.8163C52.6474 23.7589 52.9089 23.7302 53.2023 23.7302C53.8401 23.7302 54.3408 23.8928 54.7044 24.2181C55.068 24.537 55.2497 25.0122 55.2497 25.6436C55.2497 26.3261 55.0137 26.8459 54.5417 27.2031C54.0761 27.5539 53.4447 27.7293 52.6474 27.7293ZM55.6803 22.3907H57.4981V27.5763H55.6803V22.3907ZM52.6474 26.4856C52.8962 26.4856 53.0843 26.4122 53.2119 26.2655C53.3394 26.1188 53.4032 25.9243 53.4032 25.6819C53.4032 25.4459 53.3394 25.261 53.2119 25.127C53.0843 24.9931 52.8993 24.9261 52.657 24.9261C52.4848 24.9261 52.3317 24.958 52.1977 25.0218C52.0638 25.0856 51.9586 25.1717 51.882 25.2801V25.6819C51.882 25.9307 51.9458 26.1284 52.0734 26.2751C52.2009 26.4154 52.3923 26.4856 52.6474 26.4856Z" fill="black"/>
<path d="M61.4645 26.2751C61.7132 26.2751 61.9269 26.24 62.1055 26.1699C62.2905 26.0997 62.4754 25.9849 62.6604 25.8254L63.6076 26.8204C63.1165 27.3817 62.3829 27.6624 61.4071 27.6624C60.8011 27.6624 60.2686 27.5476 59.8093 27.3179C59.3501 27.0883 58.9929 26.7694 58.7378 26.3612C58.489 25.953 58.3647 25.4906 58.3647 24.9739C58.3647 24.4637 58.489 24.0076 58.7378 23.6058C58.9865 23.1976 59.3278 22.8787 59.7615 22.6491C60.2016 22.4194 60.6927 22.3046 61.2349 22.3046C61.7388 22.3046 62.198 22.4099 62.6126 22.6204C63.0335 22.8245 63.3684 23.1274 63.6171 23.5293C63.8659 23.9247 63.9903 24.3967 63.9903 24.9452L60.2877 25.6532C60.4854 26.0678 60.8777 26.2751 61.4645 26.2751ZM61.2444 23.5962C60.9319 23.5962 60.6768 23.6951 60.479 23.8928C60.2813 24.0842 60.1697 24.3616 60.1442 24.7252L62.249 24.3138C62.1852 24.0969 62.064 23.9247 61.8854 23.7971C61.7069 23.6632 61.4932 23.5962 61.2444 23.5962Z" fill="black"/>
<path d="M70.2437 27.6624C69.6696 27.6624 69.1562 27.5476 68.7033 27.3179C68.2505 27.0883 67.8965 26.7694 67.6413 26.3612C67.3926 25.953 67.2682 25.4906 67.2682 24.9739C67.2682 24.4573 67.3926 23.9981 67.6413 23.5962C67.8965 23.188 68.2505 22.8723 68.7033 22.6491C69.1562 22.4194 69.6696 22.3046 70.2437 22.3046C70.8305 22.3046 71.3375 22.4322 71.7649 22.6873C72.1922 22.9361 72.4952 23.2837 72.6738 23.7302L71.2674 24.4477C71.0314 23.9821 70.687 23.7493 70.2341 23.7493C69.9088 23.7493 69.6377 23.8577 69.4209 24.0746C69.2104 24.2915 69.1051 24.5912 69.1051 24.9739C69.1051 25.363 69.2104 25.6692 69.4209 25.8924C69.6377 26.1093 69.9088 26.2177 70.2341 26.2177C70.687 26.2177 71.0314 25.9849 71.2674 25.5193L72.6738 26.2368C72.4952 26.6833 72.1922 27.0341 71.7649 27.2892C71.3375 27.538 70.8305 27.6624 70.2437 27.6624Z" fill="black"/>
<path d="M78.7727 22.3907V27.5763H77.041V27.0309C76.8496 27.235 76.62 27.3913 76.3521 27.4997C76.0906 27.6081 75.81 27.6624 75.5102 27.6624C74.8341 27.6624 74.2952 27.4646 73.8933 27.0692C73.4979 26.6737 73.3001 26.0806 73.3001 25.2897V22.3907H75.1179V24.9931C75.1179 25.7393 75.4082 26.1124 75.9886 26.1124C76.2756 26.1124 76.5084 26.0136 76.687 25.8159C76.8656 25.6118 76.9549 25.3024 76.9549 24.8878V22.3907H78.7727Z" fill="black"/>
<path d="M82.5953 27.6624C82.0212 27.6624 81.5078 27.5476 81.0549 27.3179C80.6021 27.0883 80.2481 26.7694 79.993 26.3612C79.7442 25.953 79.6198 25.4906 79.6198 24.9739C79.6198 24.4573 79.7442 23.9981 79.993 23.5962C80.2481 23.188 80.6021 22.8723 81.0549 22.6491C81.5078 22.4194 82.0212 22.3046 82.5953 22.3046C83.1821 22.3046 83.6892 22.4322 84.1165 22.6873C84.5438 22.9361 84.8468 23.2837 85.0254 23.7302L83.619 24.4477C83.383 23.9821 83.0386 23.7493 82.5857 23.7493C82.2604 23.7493 81.9894 23.8577 81.7725 24.0746C81.562 24.2915 81.4568 24.5912 81.4568 24.9739C81.4568 25.363 81.562 25.6692 81.7725 25.8924C81.9894 26.1093 82.2604 26.2177 82.5857 26.2177C83.0386 26.2177 83.383 25.9849 83.619 25.5193L85.0254 26.2368C84.8468 26.6833 84.5438 27.0341 84.1165 27.2892C83.6892 27.538 83.1821 27.6624 82.5953 27.6624Z" fill="black"/>
<path d="M92.5403 22.3046C93.1781 22.3046 93.6852 22.496 94.0615 22.8787C94.4442 23.2614 94.6355 23.8386 94.6355 24.6104V27.5763H92.8177V24.907C92.8177 24.5434 92.7476 24.2755 92.6072 24.1033C92.4733 23.9311 92.282 23.845 92.0332 23.845C91.7589 23.845 91.5389 23.9407 91.3731 24.132C91.2072 24.3233 91.1243 24.6136 91.1243 25.0026V27.5763H89.3065V24.907C89.3065 24.199 89.045 23.845 88.522 23.845C88.2413 23.845 88.0181 23.9407 87.8523 24.132C87.6864 24.3233 87.6035 24.6136 87.6035 25.0026V27.5763H85.7857V22.3907H87.5174V22.9361C87.7087 22.7256 87.9352 22.5693 88.1967 22.4673C88.4646 22.3589 88.7548 22.3046 89.0673 22.3046C89.4309 22.3046 89.7562 22.3716 90.0432 22.5056C90.3302 22.6395 90.563 22.8436 90.7416 23.1179C90.9457 22.8564 91.204 22.6554 91.5166 22.5151C91.8291 22.3748 92.1703 22.3046 92.5403 22.3046Z" fill="black"/>
<path d="M98.482 26.2751C98.7307 26.2751 98.9444 26.24 99.123 26.1699C99.308 26.0997 99.4929 25.9849 99.6779 25.8254L100.625 26.8204C100.134 27.3817 99.4005 27.6624 98.4246 27.6624C97.8186 27.6624 97.2861 27.5476 96.8268 27.3179C96.3676 27.0883 96.0104 26.7694 95.7553 26.3612C95.5065 25.953 95.3822 25.4906 95.3822 24.9739C95.3822 24.4637 95.5065 24.0076 95.7553 23.6058C96.004 23.1976 96.3453 22.8787 96.779 22.6491C97.2191 22.4194 97.7102 22.3046 98.2524 22.3046C98.7562 22.3046 99.2155 22.4099 99.6301 22.6204C100.051 22.8245 100.386 23.1274 100.635 23.5293C100.883 23.9247 101.008 24.3967 101.008 24.9452L97.3052 25.6532C97.5029 26.0678 97.8952 26.2751 98.482 26.2751ZM98.2619 23.5962C97.9494 23.5962 97.6943 23.6951 97.4965 23.8928C97.2988 24.0842 97.1872 24.3616 97.1617 24.7252L99.2665 24.3138C99.2027 24.0969 99.0815 23.9247 98.9029 23.7971C98.7243 23.6632 98.5107 23.5962 98.2619 23.5962Z" fill="black"/>
<path d="M106.907 27.5763V24.8496L105.577 27.117H104.802L103.511 24.8113V27.5763H101.875V22.3907H103.788L105.233 25.0983L106.821 22.3907H108.533L108.543 27.5763H106.907Z" fill="black"/>
<path d="M112.238 27.7293C110.522 27.7293 109.664 26.9926 109.664 25.5193V22.3907H111.473V24.0363C111.606 23.947 111.785 23.8737 112.008 23.8163C112.238 23.7589 112.499 23.7302 112.793 23.7302C113.431 23.7302 113.931 23.8928 114.295 24.2181C114.658 24.537 114.84 25.0122 114.84 25.6436C114.84 26.3261 114.604 26.8459 114.132 27.2031C113.667 27.5539 113.035 27.7293 112.238 27.7293ZM115.271 22.3907H117.089V27.5763H115.271V22.3907ZM112.238 26.4856C112.487 26.4856 112.675 26.4122 112.802 26.2655C112.93 26.1188 112.994 25.9243 112.994 25.6819C112.994 25.4459 112.93 25.261 112.802 25.127C112.675 24.9931 112.49 24.9261 112.247 24.9261C112.075 24.9261 111.922 24.958 111.788 25.0218C111.654 25.0856 111.549 25.1717 111.473 25.2801V25.6819C111.473 25.9307 111.536 26.1284 111.664 26.2751C111.791 26.4154 111.983 26.4856 112.238 26.4856Z" fill="black"/>
</svg>
